<mxfile host="app.diagrams.net" modified="2020-11-27T15:39:16.744Z" agent="5.0 (Windows NT 10.0; Win64; x64) AppleWebKit/537.36 (KHTML, like Gecko) Chrome/87.0.4280.67 Safari/537.36 Edg/87.0.664.47" etag="Y8T-yu5jIvuFYTyJrbAr" version="13.10.0" type="github">
  <diagram id="z0b5s6Xfp20tu9YOLcQI" name="Page-1">
    <mxGraphModel dx="904" dy="460" grid="1" gridSize="10" guides="1" tooltips="1" connect="1" arrows="1" fold="1" page="1" pageScale="1" pageWidth="850" pageHeight="1100" background="#ffffff" math="0" shadow="0">
      <root>
        <mxCell id="0" />
        <mxCell id="1" parent="0" />
        <mxCell id="XiEvwsLqZRFqM2Vww6Zv-3" value="" style="ellipse;html=1;shape=startState;fillColor=#000000;strokeColor=#ff0000;" vertex="1" parent="1">
          <mxGeometry x="410" y="530" width="30" height="30" as="geometry" />
        </mxCell>
        <mxCell id="XiEvwsLqZRFqM2Vww6Zv-4" value="" style="edgeStyle=orthogonalEdgeStyle;html=1;verticalAlign=bottom;endArrow=open;endSize=8;strokeColor=#ff0000;" edge="1" source="XiEvwsLqZRFqM2Vww6Zv-3" parent="1">
          <mxGeometry relative="1" as="geometry">
            <mxPoint x="510" y="545" as="targetPoint" />
          </mxGeometry>
        </mxCell>
        <mxCell id="XiEvwsLqZRFqM2Vww6Zv-5" value="Hiển thị trang màn hình&amp;nbsp;&lt;br&gt;chính của chức&lt;br&gt;&amp;nbsp;năng thanh toán" style="html=1;align=center;verticalAlign=top;rounded=1;absoluteArcSize=1;arcSize=10;dashed=0;" vertex="1" parent="1">
          <mxGeometry x="510" y="525" width="140" height="55" as="geometry" />
        </mxCell>
        <mxCell id="XiEvwsLqZRFqM2Vww6Zv-7" value="Hiển thị màn hình&amp;nbsp;&lt;br&gt;thanh toán với thẻ&amp;nbsp;&lt;br&gt;ngân hàng" style="html=1;align=center;verticalAlign=top;rounded=1;absoluteArcSize=1;arcSize=10;dashed=0;" vertex="1" parent="1">
          <mxGeometry x="770" y="430" width="140" height="55" as="geometry" />
        </mxCell>
        <mxCell id="XiEvwsLqZRFqM2Vww6Zv-8" value="Hiển thị màn hình&lt;br&gt;thanh toán với ví &lt;br&gt;điện tử" style="html=1;align=center;verticalAlign=top;rounded=1;absoluteArcSize=1;arcSize=10;dashed=0;" vertex="1" parent="1">
          <mxGeometry x="770" y="505" width="140" height="55" as="geometry" />
        </mxCell>
        <mxCell id="XiEvwsLqZRFqM2Vww6Zv-9" value="Hiển thị màn hình&amp;nbsp;&lt;br&gt;thanh toán với hình&amp;nbsp;&lt;br&gt;thức cod" style="html=1;align=center;verticalAlign=top;rounded=1;absoluteArcSize=1;arcSize=10;dashed=0;" vertex="1" parent="1">
          <mxGeometry x="770" y="575" width="140" height="55" as="geometry" />
        </mxCell>
        <mxCell id="XiEvwsLqZRFqM2Vww6Zv-10" value="Cập nhật dữ liệu hệ thống" style="html=1;align=center;verticalAlign=top;rounded=1;absoluteArcSize=1;arcSize=10;dashed=0;" vertex="1" parent="1">
          <mxGeometry x="770" y="675" width="140" height="40" as="geometry" />
        </mxCell>
        <mxCell id="XiEvwsLqZRFqM2Vww6Zv-11" value="" style="html=1;points=[];perimeter=orthogonalPerimeter;fillColor=#000000;strokeColor=none;" vertex="1" parent="1">
          <mxGeometry x="720" y="450" width="5" height="160" as="geometry" />
        </mxCell>
        <mxCell id="XiEvwsLqZRFqM2Vww6Zv-12" value="" style="html=1;verticalAlign=bottom;endArrow=block;" edge="1" parent="1">
          <mxGeometry x="-0.7143" y="89" width="80" relative="1" as="geometry">
            <mxPoint x="650" y="559" as="sourcePoint" />
            <mxPoint x="720" y="559" as="targetPoint" />
            <mxPoint as="offset" />
          </mxGeometry>
        </mxCell>
        <mxCell id="XiEvwsLqZRFqM2Vww6Zv-13" value="" style="html=1;verticalAlign=bottom;endArrow=block;" edge="1" parent="1">
          <mxGeometry x="1" y="67" width="80" relative="1" as="geometry">
            <mxPoint x="720" y="457" as="sourcePoint" />
            <mxPoint x="770" y="457" as="targetPoint" />
            <mxPoint as="offset" />
          </mxGeometry>
        </mxCell>
        <mxCell id="XiEvwsLqZRFqM2Vww6Zv-14" value="" style="html=1;verticalAlign=bottom;endArrow=block;" edge="1" parent="1">
          <mxGeometry x="1" y="67" width="80" relative="1" as="geometry">
            <mxPoint x="725" y="540" as="sourcePoint" />
            <mxPoint x="775" y="540" as="targetPoint" />
            <mxPoint as="offset" />
          </mxGeometry>
        </mxCell>
        <mxCell id="XiEvwsLqZRFqM2Vww6Zv-15" value="" style="html=1;verticalAlign=bottom;endArrow=block;" edge="1" parent="1">
          <mxGeometry x="1" y="67" width="80" relative="1" as="geometry">
            <mxPoint x="725" y="602" as="sourcePoint" />
            <mxPoint x="775" y="602" as="targetPoint" />
            <mxPoint as="offset" />
          </mxGeometry>
        </mxCell>
        <mxCell id="XiEvwsLqZRFqM2Vww6Zv-16" value="" style="html=1;points=[];perimeter=orthogonalPerimeter;fillColor=#000000;strokeColor=none;" vertex="1" parent="1">
          <mxGeometry x="960" y="455" width="5" height="95" as="geometry" />
        </mxCell>
        <mxCell id="XiEvwsLqZRFqM2Vww6Zv-17" value="" style="html=1;verticalAlign=bottom;endArrow=block;" edge="1" parent="1">
          <mxGeometry x="1" y="73" width="80" relative="1" as="geometry">
            <mxPoint x="910" y="460" as="sourcePoint" />
            <mxPoint x="960" y="460" as="targetPoint" />
            <mxPoint x="70" y="53" as="offset" />
          </mxGeometry>
        </mxCell>
        <mxCell id="XiEvwsLqZRFqM2Vww6Zv-19" value="" style="html=1;verticalAlign=bottom;endArrow=block;" edge="1" parent="1">
          <mxGeometry width="80" relative="1" as="geometry">
            <mxPoint x="910" y="545" as="sourcePoint" />
            <mxPoint x="960" y="545" as="targetPoint" />
            <Array as="points">
              <mxPoint x="940" y="545" />
            </Array>
          </mxGeometry>
        </mxCell>
        <mxCell id="XiEvwsLqZRFqM2Vww6Zv-20" value="Kiểm tra&amp;nbsp;&lt;br&gt;tài khoản" style="rhombus;whiteSpace=wrap;html=1;fillColor=#ffffc0;strokeColor=#ff0000;" vertex="1" parent="1">
          <mxGeometry x="1000" y="490" width="80" height="50" as="geometry" />
        </mxCell>
        <mxCell id="XiEvwsLqZRFqM2Vww6Zv-21" value="[Đủ điều kiện]" style="edgeStyle=orthogonalEdgeStyle;html=1;align=left;verticalAlign=bottom;endArrow=open;endSize=8;strokeColor=#ff0000;exitX=1;exitY=0.5;exitDx=0;exitDy=0;" edge="1" source="XiEvwsLqZRFqM2Vww6Zv-20" parent="1">
          <mxGeometry x="-0.9149" relative="1" as="geometry">
            <mxPoint x="1140" y="600" as="targetPoint" />
            <Array as="points">
              <mxPoint x="1140" y="515" />
              <mxPoint x="1140" y="580" />
            </Array>
            <mxPoint as="offset" />
          </mxGeometry>
        </mxCell>
        <mxCell id="XiEvwsLqZRFqM2Vww6Zv-23" value="" style="html=1;verticalAlign=bottom;endArrow=block;" edge="1" parent="1">
          <mxGeometry x="1" y="50" width="80" relative="1" as="geometry">
            <mxPoint x="965" y="514.5" as="sourcePoint" />
            <mxPoint x="1000" y="515" as="targetPoint" />
            <mxPoint x="30" y="10" as="offset" />
          </mxGeometry>
        </mxCell>
        <mxCell id="XiEvwsLqZRFqM2Vww6Zv-24" value="[Không đủ điều kiện]" style="edgeStyle=orthogonalEdgeStyle;html=1;align=left;verticalAlign=bottom;endArrow=open;endSize=8;strokeColor=#ff0000;exitX=0.5;exitY=0;exitDx=0;exitDy=0;" edge="1" parent="1" source="XiEvwsLqZRFqM2Vww6Zv-20">
          <mxGeometry x="-0.461" relative="1" as="geometry">
            <mxPoint x="570" y="525" as="targetPoint" />
            <mxPoint x="1100" y="390" as="sourcePoint" />
            <mxPoint as="offset" />
            <Array as="points">
              <mxPoint x="1040" y="390" />
              <mxPoint x="570" y="390" />
            </Array>
          </mxGeometry>
        </mxCell>
        <mxCell id="XiEvwsLqZRFqM2Vww6Zv-25" value="Xác thực" style="rhombus;whiteSpace=wrap;html=1;fillColor=#ffffc0;strokeColor=#ff0000;" vertex="1" parent="1">
          <mxGeometry x="1100" y="600" width="80" height="40" as="geometry" />
        </mxCell>
        <mxCell id="XiEvwsLqZRFqM2Vww6Zv-26" value="[Không đồng ý]" style="edgeStyle=orthogonalEdgeStyle;html=1;align=left;verticalAlign=bottom;endArrow=open;endSize=8;strokeColor=#ff0000;" edge="1" source="XiEvwsLqZRFqM2Vww6Zv-25" parent="1" target="XiEvwsLqZRFqM2Vww6Zv-5">
          <mxGeometry x="-1" relative="1" as="geometry">
            <mxPoint x="540" y="650" as="targetPoint" />
            <Array as="points">
              <mxPoint x="1260" y="620" />
              <mxPoint x="1260" y="780" />
              <mxPoint x="530" y="780" />
            </Array>
          </mxGeometry>
        </mxCell>
        <mxCell id="XiEvwsLqZRFqM2Vww6Zv-27" value="[Đồng ý]" style="edgeStyle=orthogonalEdgeStyle;html=1;align=left;verticalAlign=top;endArrow=open;endSize=8;strokeColor=#ff0000;entryX=1;entryY=0.75;entryDx=0;entryDy=0;" edge="1" source="XiEvwsLqZRFqM2Vww6Zv-25" parent="1" target="XiEvwsLqZRFqM2Vww6Zv-10">
          <mxGeometry x="-0.2197" relative="1" as="geometry">
            <mxPoint x="1100" y="760" as="targetPoint" />
            <Array as="points">
              <mxPoint x="1140" y="705" />
            </Array>
            <mxPoint as="offset" />
          </mxGeometry>
        </mxCell>
        <mxCell id="XiEvwsLqZRFqM2Vww6Zv-28" value="" style="ellipse;html=1;shape=endState;fillColor=#000000;strokeColor=#ff0000;" vertex="1" parent="1">
          <mxGeometry x="620" y="680" width="30" height="30" as="geometry" />
        </mxCell>
        <mxCell id="XiEvwsLqZRFqM2Vww6Zv-29" value="" style="html=1;verticalAlign=bottom;endArrow=block;entryX=1;entryY=0.5;entryDx=0;entryDy=0;exitX=0;exitY=0.5;exitDx=0;exitDy=0;" edge="1" parent="1" source="XiEvwsLqZRFqM2Vww6Zv-10" target="XiEvwsLqZRFqM2Vww6Zv-28">
          <mxGeometry x="-0.5251" y="36" width="80" relative="1" as="geometry">
            <mxPoint x="670" y="620" as="sourcePoint" />
            <mxPoint x="750" y="620" as="targetPoint" />
            <mxPoint as="offset" />
          </mxGeometry>
        </mxCell>
        <mxCell id="XiEvwsLqZRFqM2Vww6Zv-30" value="&lt;font style=&quot;font-size: 14px&quot;&gt;Kết thúc use case&amp;nbsp;&lt;br&gt;chức năng thanh toán&lt;/font&gt;" style="text;html=1;align=center;verticalAlign=middle;resizable=0;points=[];autosize=1;" vertex="1" parent="1">
          <mxGeometry x="535" y="710" width="150" height="40" as="geometry" />
        </mxCell>
        <mxCell id="XiEvwsLqZRFqM2Vww6Zv-31" value="&lt;font style=&quot;font-size: 14px&quot;&gt;Bắt đầu use case&amp;nbsp;&lt;br&gt;thanh toán&lt;/font&gt;" style="text;html=1;align=center;verticalAlign=middle;resizable=0;points=[];autosize=1;" vertex="1" parent="1">
          <mxGeometry x="370" y="560" width="130" height="40" as="geometry" />
        </mxCell>
        <mxCell id="XiEvwsLqZRFqM2Vww6Zv-32" value="dispatch" style="html=1;verticalAlign=bottom;endArrow=block;exitX=1;exitY=0.75;exitDx=0;exitDy=0;" edge="1" parent="1" source="XiEvwsLqZRFqM2Vww6Zv-9">
          <mxGeometry width="80" relative="1" as="geometry">
            <mxPoint x="995" y="650" as="sourcePoint" />
            <mxPoint x="640" y="680" as="targetPoint" />
            <Array as="points">
              <mxPoint x="990" y="620" />
              <mxPoint x="990" y="650" />
              <mxPoint x="670" y="650" />
              <mxPoint x="640" y="650" />
              <mxPoint x="640" y="670" />
            </Array>
          </mxGeometry>
        </mxCell>
      </root>
    </mxGraphModel>
  </diagram>
</mxfile>
